<?xml version="1.0" encoding="UTF-8"?>
<svg xmlns="http://www.w3.org/2000/svg" xmlns:xlink="http://www.w3.org/1999/xlink" width="50px" height="64px" viewBox="0 0 50 63" version="1.1">
<g id="surface1">
<path style=" stroke:none;fill-rule:nonzero;fill:rgb(19.215686%,36.078431%,99.215686%);fill-opacity:1;" d="M 10.035156 0 L 40.160156 0 C 45.785156 0 50.203125 4.320312 49.996094 9.621094 L 49.996094 41.828125 C 49.996094 47.121094 45.582031 51.441406 40.15625 51.441406 L 33.53125 51.441406 L 37.144531 62.828125 L 19.671875 51.441406 L 10.042969 51.441406 C 4.417969 51.441406 0 47.121094 0 41.628906 L 0 9.632812 C -0.0117188 4.320312 4.410156 0 10.035156 0 Z M 21.738281 35.339844 C 20.71875 34.789062 19.898438 33.984375 19.277344 32.929688 C 18.664062 31.871094 18.355469 30.597656 18.355469 29.121094 L 18.355469 11.960938 C 18.355469 11.695312 18.296875 11.492188 18.167969 11.359375 C 18.050781 11.21875 17.851562 11.152344 17.5625 11.152344 L 13.078125 11.152344 C 12.972656 11.152344 12.871094 11.171875 12.777344 11.210938 C 12.6875 11.253906 12.601562 11.3125 12.542969 11.394531 C 12.398438 11.550781 12.320312 11.757812 12.328125 11.972656 L 12.328125 29.054688 C 12.328125 31.789062 12.90625 34.078125 14.058594 35.933594 C 15.203125 37.789062 16.742188 39.167969 18.6875 40.074219 C 20.621094 40.988281 22.789062 41.429688 25.171875 41.429688 C 27.5625 41.429688 29.726562 40.988281 31.660156 40.097656 C 33.597656 39.214844 35.132812 37.855469 36.285156 36.003906 C 37.429688 34.152344 38.007812 31.855469 38.007812 29.113281 L 38.007812 11.980469 C 38.007812 11.871094 37.988281 11.757812 37.949219 11.65625 C 37.90625 11.558594 37.847656 11.457031 37.769531 11.382812 C 37.613281 11.230469 37.398438 11.144531 37.128906 11.144531 L 32.851562 11.144531 C 32.597656 11.144531 32.386719 11.21875 32.238281 11.375 C 32.074219 11.53125 31.996094 11.730469 31.996094 11.980469 L 31.996094 29.121094 C 31.996094 30.5 31.695312 31.730469 31.089844 32.796875 C 30.480469 33.871094 29.65625 34.695312 28.617188 35.28125 C 27.578125 35.867188 26.429688 36.160156 25.179688 36.160156 C 23.902344 36.171875 22.757812 35.894531 21.738281 35.339844 Z M 21.738281 35.339844 "/>
</g>
</svg>
